<svg xmlns="http://www.w3.org/2000/svg" viewBox="0 0 1600 400" fill="none" role="img" aria-labelledby="t">
  <title id="t">County public health analytics: maps, registry data, and care themes</title>
  <defs>
    <linearGradient id="bg" x1="0" y1="0" x2="1" y2="1">
      <stop offset="0%" stop-color="#0f766e"/>
      <stop offset="45%" stop-color="#14b8a6"/>
      <stop offset="100%" stop-color="#5eead4"/>
    </linearGradient>
    <linearGradient id="glow" x1="0" y1="0" x2="0" y2="1">
      <stop offset="0%" stop-color="#ffffff" stop-opacity="0.35"/>
      <stop offset="100%" stop-color="#ffffff" stop-opacity="0"/>
    </linearGradient>
    <pattern id="grid" width="40" height="40" patternUnits="userSpaceOnUse">
      <path d="M40 0H0V40" stroke="white" stroke-opacity="0.12" stroke-width="0.5"/>
    </pattern>
  </defs>
  <rect width="1600" height="400" fill="url(#bg)"/>
  <rect width="1600" height="400" fill="url(#grid)"/>
  <ellipse cx="1320" cy="80" rx="220" ry="120" fill="url(#glow)" opacity="0.9"/>
  <ellipse cx="200" cy="320" rx="280" ry="160" fill="#042f2e" fill-opacity="0.15"/>
  <g opacity="0.9" fill="white" fill-opacity="0.2" stroke="white" stroke-opacity="0.35" stroke-width="1.5">
    <path d="M180 120 L260 95 L320 140 L300 210 L210 230 L150 180 Z"/>
    <path d="M330 100 L420 88 L460 150 L430 220 L340 200 Z"/>
    <path d="M480 130 L580 110 L620 180 L560 250 L470 230 Z"/>
    <path d="M640 90 L760 105 L740 200 L620 215 Z"/>
  </g>
  <g transform="translate(980 140)" opacity="0.85">
    <rect x="0" y="80" width="28" height="100" rx="4" fill="white" fill-opacity="0.35"/>
    <rect x="44" y="40" width="28" height="140" rx="4" fill="white" fill-opacity="0.5"/>
    <rect x="88" y="60" width="28" height="120" rx="4" fill="white" fill-opacity="0.4"/>
    <rect x="132" y="20" width="28" height="160" rx="4" fill="white" fill-opacity="0.55"/>
    <rect x="176" y="50" width="28" height="130" rx="4" fill="white" fill-opacity="0.45"/>
  </g>
  <g transform="translate(1180 200)" opacity="0.9">
    <path d="M0 25 C-35 -15 -70 25 0 85 C70 25 35 -15 0 25Z" fill="white" fill-opacity="0.25" stroke="white" stroke-opacity="0.5" stroke-width="2"/>
    <path d="M-2 10 L-2 55 M-24 32 L20 32" stroke="white" stroke-opacity="0.6" stroke-width="3" stroke-linecap="round"/>
  </g>
  <rect width="1600" height="400" fill="url(#glow)" style="mix-blend-mode: overlay" opacity="0.3"/>
</svg>
