<svg xmlns="http://www.w3.org/2000/svg" viewBox="0 0 1600 400" fill="none" role="img" aria-labelledby="t">
  <title id="t">College first-year experience: campus, learning, and student engagement</title>
  <defs>
    <linearGradient id="bg" x1="0" y1="0" x2="1" y2="1">
      <stop offset="0%" stop-color="#4f46e5"/>
      <stop offset="50%" stop-color="#7c3aed"/>
      <stop offset="100%" stop-color="#a78bfa"/>
    </linearGradient>
    <linearGradient id="sun" x1="0" y1="0" x2="0" y2="1">
      <stop offset="0%" stop-color="#fef3c7" stop-opacity="0.5"/>
      <stop offset="100%" stop-color="#fef3c7" stop-opacity="0"/>
    </linearGradient>
  </defs>
  <rect width="1600" height="400" fill="url(#bg)"/>
  <circle cx="200" cy="100" r="120" fill="url(#sun)"/>
  <path d="M0 280 L120 220 L200 250 L320 200 L440 235 L560 190 L700 240 L820 210 L960 255 L1100 200 L1240 245 L1380 215 L1520 260 L1600 230 V400 H0Z" fill="#312e81" fill-opacity="0.35"/>
  <path d="M0 300 L140 255 L280 285 L420 250 L560 275 L720 235 L880 265 L1040 248 L1200 278 L1360 252 L1520 270 L1600 255 V400 H0Z" fill="#1e1b4b" fill-opacity="0.4"/>
  <g transform="translate(620 95)" opacity="0.92">
    <path d="M0 40 Q80 0 160 40 V200 Q80 170 0 200 Z" fill="white" fill-opacity="0.2" stroke="white" stroke-opacity="0.45" stroke-width="2"/>
    <path d="M160 40 Q240 0 320 40 V200 Q240 170 160 200 Z" fill="white" fill-opacity="0.15" stroke="white" stroke-opacity="0.45" stroke-width="2"/>
    <line x1="160" y1="40" x2="160" y2="200" stroke="white" stroke-opacity="0.35" stroke-width="2"/>
  </g>
  <g fill="#fde68a" fill-opacity="0.85">
    <path d="M1280 90 L1292 118 L1322 122 L1300 142 L1306 172 L1280 158 L1254 172 L1260 142 L1238 122 L1268 118Z"/>
    <path d="M1380 160 L1388 178 L1408 181 L1394 195 L1398 215 L1380 206 L1362 215 L1366 195 L1352 181 L1372 178Z"/>
    <path d="M1450 70 L1456 86 L1472 88 L1460 100 L1464 118 L1450 110 L1436 118 L1440 100 L1428 88 L1444 86Z"/>
  </g>
  <g fill="white" fill-opacity="0.35">
    <circle cx="1050" cy="120" r="10"/>
    <circle cx="1120" cy="100" r="10"/>
    <circle cx="1090" cy="155" r="10"/>
    <path d="M1060 125 L1110 108 M1095 118 L1090 145 M1070 130 L1110 145" stroke="white" stroke-opacity="0.25" stroke-width="2"/>
  </g>
</svg>
